<?xml version="1.0" encoding="UTF-8"?>
<svg xmlns="http://www.w3.org/2000/svg" xmlns:xlink="http://www.w3.org/1999/xlink" viewBox="0 0 24 24" width="24px" height="24px">
<g id="surface217926993">
<path style=" stroke:none;fill-rule:nonzero;fill:rgb(100%,84.313726%,0%);fill-opacity:1;" d="M 12 2 C 6.476562 2 2 6.476562 2 12 C 2 17.523438 6.476562 22 12 22 C 17.523438 22 22 17.523438 22 12 C 22 6.476562 17.523438 2 12 2 Z M 12 4 C 16.417969 4 20 7.582031 20 12 C 20 15.933594 17.15625 19.199219 13.414062 19.867188 L 13.414062 15.035156 L 15.777344 15.035156 L 16.128906 12.3125 L 13.429688 12.3125 L 13.429688 10.574219 C 13.429688 9.785156 13.648438 9.253906 14.78125 9.253906 L 16.207031 9.253906 L 16.207031 6.824219 C 15.511719 6.75 14.8125 6.714844 14.117188 6.71875 C 12.042969 6.71875 10.621094 7.984375 10.621094 10.308594 L 10.621094 12.316406 L 8.277344 12.316406 L 8.277344 15.039062 L 10.621094 15.039062 L 10.621094 19.875 C 6.863281 19.21875 4 15.945312 4 12 C 4 7.582031 7.582031 4 12 4 Z M 12 4 "/>
</g>
</svg>
